<?xml version="1.0" encoding="UTF-8" standalone="no"?>
<svg width="186px" height="51px" viewBox="0 0 186 51" version="1.1" xmlns="http://www.w3.org/2000/svg" xmlns:xlink="http://www.w3.org/1999/xlink" xmlns:sketch="http://www.bohemiancoding.com/sketch/ns">
    <!-- Generator: Sketch 3.0.4 (8054) - http://www.bohemiancoding.com/sketch -->
    <title>Slice 2</title>
    <desc>Created with Sketch.</desc>
    <defs></defs>
    <g id="Page-1" stroke="none" stroke-width="1" fill="none" fill-rule="evenodd" sketch:type="MSPage">
        <g id="nodejs-light" sketch:type="MSLayerGroup">
            <g id="Group-4" fill="#2D2E2B" sketch:type="MSShapeGroup">
                <path d="M27.948,26.497 C27.948,25.955 27.663,25.457 27.195,25.188 L14.727,18.013 C14.516,17.889 14.279,17.824 14.04,17.814 L13.911,17.814 C13.673,17.824 13.437,17.889 13.223,18.013 L0.754,25.188 C0.289,25.457 0,25.955 0,26.497 L0.027,45.819 C0.027,46.088 0.167,46.338 0.403,46.47 C0.635,46.608 0.921,46.608 1.151,46.47 L8.562,42.226 C9.03,41.948 9.315,41.457 9.315,40.92 L9.315,31.892 C9.315,31.354 9.601,30.856 10.067,30.589 L13.223,28.771 C13.458,28.636 13.715,28.569 13.978,28.569 C14.234,28.569 14.498,28.636 14.727,28.771 L17.881,30.589 C18.348,30.856 18.634,31.354 18.634,31.892 L18.634,40.92 C18.634,41.457 18.923,41.951 19.389,42.226 L26.797,46.47 C27.029,46.608 27.319,46.608 27.55,46.47 C27.779,46.338 27.924,46.088 27.924,45.819 L27.948,26.497" id="Fill-1"></path>
                <path d="M93.371,36.558 C93.371,36.692 93.299,36.817 93.183,36.884 L88.9,39.352 C88.784,39.419 88.64,39.419 88.524,39.352 L84.241,36.884 C84.124,36.817 84.053,36.692 84.053,36.558 L84.053,31.613 C84.053,31.478 84.124,31.354 84.241,31.286 L88.523,28.813 C88.64,28.745 88.784,28.745 88.9,28.813 L93.183,31.286 C93.299,31.354 93.371,31.478 93.371,31.613 L93.371,36.558 L93.371,36.558 Z M94.528,-0.065 C94.295,-0.194 94.01,-0.192 93.78,-0.056 C93.55,0.079 93.408,0.326 93.408,0.593 L93.408,19.728 C93.408,19.916 93.308,20.091 93.145,20.185 C92.982,20.279 92.781,20.279 92.618,20.185 L89.495,18.386 C89.029,18.117 88.456,18.118 87.99,18.386 L75.516,25.585 C75.05,25.854 74.763,26.351 74.763,26.889 L74.763,41.289 C74.763,41.828 75.05,42.325 75.516,42.594 L87.989,49.798 C88.455,50.067 89.029,50.067 89.496,49.798 L101.971,42.594 C102.437,42.325 102.724,41.828 102.724,41.289 L102.724,5.393 C102.724,4.847 102.428,4.344 101.951,4.077 L94.528,-0.065 L94.528,-0.065 Z" id="Fill-3"></path>
            </g>
            <path d="M139.155,31.483 C139.619,31.214 139.904,30.718 139.904,30.181 L139.904,26.691 C139.904,26.155 139.619,25.658 139.154,25.389 L126.761,18.193 C126.294,17.922 125.719,17.921 125.251,18.191 L112.782,25.39 C112.316,25.659 112.029,26.156 112.029,26.694 L112.029,41.09 C112.029,41.632 112.32,42.131 112.79,42.399 L125.182,49.46 C125.639,49.721 126.199,49.723 126.659,49.468 L134.154,45.302 C134.392,45.17 134.54,44.92 134.541,44.649 C134.543,44.377 134.398,44.126 134.163,43.991 L121.615,36.788 C121.38,36.654 121.236,36.405 121.236,36.135 L121.236,31.623 C121.236,31.354 121.38,31.105 121.613,30.971 L125.519,28.72 C125.751,28.585 126.038,28.585 126.27,28.72 L130.178,30.971 C130.411,31.105 130.555,31.354 130.555,31.623 L130.555,35.173 C130.555,35.443 130.699,35.692 130.932,35.826 C131.166,35.961 131.453,35.96 131.686,35.825 L139.155,31.483" id="Fill-5" fill="#2D2E2B" sketch:type="MSShapeGroup"></path>
            <path d="M50.63,18.115 C51.096,17.846 51.67,17.846 52.136,18.115 L64.608,25.312 C65.074,25.581 65.361,26.078 65.361,26.617 L65.361,41.023 C65.361,41.561 65.074,42.058 64.608,42.327 L52.136,49.531 C51.67,49.8 51.096,49.8 50.629,49.531 L38.16,42.327 C37.694,42.058 37.407,41.561 37.407,41.023 L37.407,26.617 C37.407,26.078 37.694,25.581 38.161,25.312 L50.63,18.115" id="Fill-6" fill="#78B742" sketch:type="MSShapeGroup"></path>
            <path d="M163.371,49.736 C162.941,49.736 162.514,49.624 162.138,49.406 L158.211,47.083 C157.625,46.755 157.911,46.639 158.104,46.571 C158.887,46.3 159.045,46.237 159.88,45.764 C159.967,45.715 160.082,45.733 160.172,45.786 L163.188,47.577 C163.298,47.638 163.452,47.638 163.553,47.577 L175.313,40.789 C175.423,40.726 175.493,40.601 175.493,40.471 L175.493,26.898 C175.493,26.766 175.423,26.641 175.311,26.574 L163.555,19.792 C163.446,19.728 163.302,19.728 163.192,19.792 L151.439,26.576 C151.325,26.641 151.253,26.769 151.253,26.898 L151.253,40.471 C151.253,40.601 151.325,40.723 151.438,40.785 L154.66,42.646 C156.408,43.52 157.479,42.491 157.479,41.457 L157.479,28.056 C157.479,27.867 157.631,27.718 157.82,27.718 L159.312,27.718 C159.498,27.718 159.652,27.867 159.652,28.056 L159.652,41.457 C159.652,43.79 158.382,45.128 156.17,45.128 C155.49,45.128 154.955,45.128 153.461,44.392 L150.377,42.616 C149.615,42.176 149.144,41.352 149.144,40.471 L149.144,26.898 C149.144,26.017 149.615,25.193 150.377,24.755 L162.138,17.959 C162.882,17.538 163.871,17.538 164.609,17.959 L176.369,24.755 C177.131,25.195 177.604,26.017 177.604,26.898 L177.604,40.471 C177.604,41.352 177.131,42.173 176.369,42.616 L164.609,49.406 C164.233,49.624 163.807,49.736 163.371,49.736" id="Fill-7" fill="#78B742" sketch:type="MSShapeGroup"></path>
            <path d="M167.004,40.386 C161.857,40.386 160.779,38.023 160.779,36.042 C160.779,35.853 160.931,35.703 161.119,35.703 L162.64,35.703 C162.81,35.703 162.951,35.825 162.978,35.991 C163.207,37.539 163.892,38.32 167.004,38.32 C169.481,38.32 170.536,37.76 170.536,36.445 C170.536,35.687 170.237,35.125 166.387,34.748 C163.169,34.43 161.179,33.719 161.179,31.144 C161.179,28.771 163.179,27.356 166.532,27.356 C170.3,27.356 172.164,28.664 172.4,31.47 C172.409,31.566 172.375,31.659 172.311,31.731 C172.246,31.799 172.156,31.84 172.062,31.84 L170.535,31.84 C170.377,31.84 170.237,31.727 170.205,31.574 C169.839,29.945 168.948,29.425 166.532,29.425 C163.827,29.425 163.513,30.367 163.513,31.073 C163.513,31.929 163.884,32.178 167.536,32.661 C171.15,33.139 172.867,33.815 172.867,36.355 C172.867,38.918 170.73,40.386 167.004,40.386" id="Fill-8" fill="#78B742" sketch:type="MSShapeGroup"></path>
            <path d="M125.822,30.809 C125.912,30.757 126.022,30.757 126.111,30.809 L128.505,32.19 C128.594,32.242 128.649,32.337 128.649,32.44 L128.649,35.204 C128.649,35.307 128.594,35.403 128.505,35.455 L126.111,36.835 C126.022,36.887 125.912,36.887 125.822,36.835 L123.431,35.455 C123.341,35.403 123.286,35.307 123.286,35.204 L123.286,32.44 C123.286,32.337 123.341,32.242 123.431,32.19 L125.822,30.809" id="Fill-9" fill="#78B742" sketch:type="MSShapeGroup"></path>
            <path d="M183.106,21.48 L183.502,21.48 C183.825,21.48 183.886,21.252 183.886,21.12 C183.886,20.772 183.646,20.772 183.514,20.772 L183.106,20.772 L183.106,21.48 L183.106,21.48 Z M182.626,20.365 L183.502,20.365 C183.802,20.365 184.39,20.365 184.39,21.036 C184.39,21.504 184.09,21.6 183.909,21.66 C184.258,21.684 184.281,21.912 184.329,22.236 C184.354,22.439 184.39,22.787 184.461,22.907 L183.922,22.907 C183.909,22.787 183.825,22.139 183.825,22.104 C183.79,21.96 183.741,21.888 183.562,21.888 L183.118,21.888 L183.118,22.907 L182.626,22.907 L182.626,20.365 L182.626,20.365 Z M181.577,21.63 C181.577,22.685 182.429,23.537 183.472,23.537 C184.527,23.537 185.379,22.667 185.379,21.63 C185.379,20.575 184.516,19.735 183.472,19.735 C182.44,19.735 181.577,20.562 181.577,21.63 L181.577,21.63 Z M185.744,21.636 C185.744,22.883 184.725,23.903 183.478,23.903 C182.242,23.903 181.211,22.895 181.211,21.636 C181.211,20.353 182.267,19.369 183.478,19.369 C184.701,19.369 185.744,20.353 185.744,21.636 L185.744,21.636 Z" id="Fill-10" fill="#78B742" sketch:type="MSShapeGroup"></path>
        </g>
    </g>
</svg>